<?xml version="1.0" encoding="utf-8"?>
<!-- Generator: Adobe Illustrator 25.2.0, SVG Export Plug-In . SVG Version: 6.00 Build 0)  -->
<svg version="1.1" id="katman_1" xmlns="http://www.w3.org/2000/svg" xmlns:xlink="http://www.w3.org/1999/xlink" x="0px" y="0px"
	 viewBox="0 0 841.89 595.28" style="enable-background:new 0 0 841.89 595.28;" xml:space="preserve">
<style type="text/css">
	.st0{fill:#FCC136;}
	.st1{fill-rule:evenodd;clip-rule:evenodd;fill:#FFFFFF;}
</style>
<circle class="st0" cx="421" cy="297.85" r="233.91"/>
<path class="st1" d="M332.29,187.7h89.1c54.2,0,95.28,29.13,110.57,71.52h27.76v25.62H537.8c0.43,4.05,0.65,8.17,0.65,12.36v0.63
	c0,4.72-0.28,9.36-0.82,13.9h22.08v25.62h-28.29c-15.69,41.8-56.45,70.65-110.04,70.65h-89.1v-70.65h-30.96v-25.62h30.96v-26.89
	h-30.96v-25.62h30.96V187.7z M357.2,337.35v47.67h64.19c39.61,0,69.04-19.09,82.75-47.67H357.2z M511.77,311.73H357.2v-26.89h154.61
	c0.57,4.23,0.87,8.57,0.87,12.99v0.63C512.67,302.99,512.37,307.42,511.77,311.73z M421.39,210.64c39.8,0,69.32,19.6,82.93,48.58
	H357.2v-48.58H421.39z"/>
</svg>
